<svg width="15" height="15" viewBox="0 0 15 15" fill="none" xmlns="http://www.w3.org/2000/svg">
<g id="Icon Frame">
<path id="Union" fill-rule="evenodd" clip-rule="evenodd" d="M9.99951 1.875C11.6674 1.875 13.2657 3.28645 12.7966 5.1289C11.8404 8.88518 8.88469 11.8408 5.12841 12.7971C3.28597 13.2662 1.87451 11.6678 1.87451 10V9.375C1.87451 8.67071 2.43772 8.15916 3.06187 8.09729C3.58422 8.04551 4.08512 7.92235 4.555 7.73779C4.7864 7.6469 5.04965 7.70179 5.22544 7.87758L5.85175 8.50389C6.96176 7.88266 7.88217 6.96225 8.5034 5.85224L7.87709 5.22593C7.7013 5.05014 7.64641 4.78689 7.7373 4.5555C7.92186 4.08561 8.04502 3.58471 8.0968 3.06236C8.15867 2.43821 8.67022 1.875 9.37451 1.875H9.99951Z" fill="#181819"/>
</g>
</svg>
