<svg width="24" height="24" viewBox="0 0 24 24" fill="none" xmlns="http://www.w3.org/2000/svg">
<g id="Icon Frame">
<path id="Union" fill-rule="evenodd" clip-rule="evenodd" d="M8.10655 2.55279C8.27594 2.214 8.6222 2 9.00098 2H15.001C15.3797 2 15.726 2.214 15.8954 2.55279L17.619 5.99994H20.001C20.5533 5.99994 21.001 6.44765 21.001 6.99994C21.001 7.55222 20.5533 7.99994 20.001 7.99994H19.001V19C19.001 20.6569 17.6579 22 16.001 22H8.00101C6.34415 22 5.00101 20.6569 5.00101 19V7.99994H4.00098C3.44869 7.99994 3.00098 7.55222 3.00098 6.99994C3.00098 6.44765 3.44869 5.99994 4.00098 5.99994H6.38297L8.10655 2.55279ZM14.3829 4L15.3829 5.99994H8.61904L9.61901 4H14.3829ZM11.001 10.9999C11.001 10.4477 10.5532 9.99994 10.001 9.99994C9.44868 9.99994 9.00096 10.4477 9.00096 10.9999V16.9999C9.00096 17.5522 9.44868 17.9999 10.001 17.9999C10.5532 17.9999 11.001 17.5522 11.001 16.9999V10.9999ZM15.001 10.9999C15.001 10.4477 14.5533 9.99994 14.001 9.99994C13.4487 9.99994 13.001 10.4477 13.001 10.9999V16.9999C13.001 17.5522 13.4487 17.9999 14.001 17.9999C14.5533 17.9999 15.001 17.5522 15.001 16.9999V10.9999Z" fill="white"/>
</g>
</svg>
