<svg width="83" height="17" viewBox="0 0 83 17" fill="none" xmlns="http://www.w3.org/2000/svg">
<path d="M6.92308 3.02454C5.96154 3.02454 5.67308 3.45094 5.67308 4.40065V5.97059H8.25L8 8.52901H5.67308V16.2624H2.57692V8.52901H0.5V5.98997H2.57692V4.4588C2.57692 1.86162 3.61538 0.504883 6.48077 0.504883C7.07692 0.504883 7.69231 0.543647 8.28846 0.621175V3.02454" fill="#004F9D"/>
<path d="M8.46161 10.7966C8.46161 7.9281 9.80777 5.75732 12.6539 5.75732C14.1924 5.75732 15.1347 6.55198 15.5962 7.55985V5.98991H18.5578V16.2817H15.577V14.7312C15.1539 15.7196 14.1732 16.4949 12.6347 16.4949C9.80777 16.4949 8.44238 14.3435 8.44238 11.4556M11.5578 11.4944C11.5578 13.0256 12.1155 14.0528 13.5578 14.0528C14.827 14.0528 15.4616 13.1225 15.4616 11.6494V10.6028C15.4616 9.12978 14.8078 8.19945 13.5578 8.19945C12.1155 8.19945 11.5578 9.20731 11.5578 10.7579V11.4944Z" fill="#004F9D"/>
<path d="M24.9807 5.75732C26.173 5.75732 27.3268 6.00929 27.9422 6.45507L27.2499 8.66462C26.6153 8.35451 25.9037 8.19945 25.1922 8.19945C23.5191 8.19945 22.7883 9.16855 22.7883 10.8354V11.4362C22.7883 13.1031 23.5191 14.0722 25.1922 14.0722C25.9037 14.0722 26.6153 13.8977 27.2499 13.5876L27.9422 15.7972C27.3268 16.2236 26.1922 16.4949 24.9807 16.4949C21.346 16.4949 19.7114 14.5373 19.7114 11.3781V10.8935C19.7114 7.73428 21.346 5.75732 24.9807 5.75732Z" fill="#004F9D"/>
<path d="M28.3462 11.5138V10.6028C28.3462 7.67614 30 5.75732 33.3654 5.75732C36.5385 5.75732 37.9423 7.69552 37.9423 10.564V12.2115H31.4423C31.5 13.6264 32.1347 14.2466 33.8462 14.2466C34.9616 14.2466 36.077 14.0334 37.1347 13.6264L37.6923 15.7584C36.8847 16.1848 35.2116 16.5143 33.7308 16.5143C29.8077 16.4949 28.3462 14.5373 28.3462 11.5138ZM31.4423 10.157H35.1731V9.90506C35.1731 8.78091 34.7308 7.88934 33.3654 7.88934C31.9808 7.88934 31.4423 8.78091 31.4423 10.157Z" fill="#004F9D"/>
<path d="M49.4038 11.4557C49.4038 14.3243 48.0384 16.495 45.1923 16.495C43.6538 16.495 42.5769 15.7198 42.1538 14.7313V16.2818H39.2307V0.815048L42.3269 0.543701V7.42429C42.7692 6.51334 43.7692 5.77683 45.2115 5.77683C48.0384 5.77683 49.423 7.92822 49.423 10.8161M46.3076 10.7386C46.3076 9.28496 45.7499 8.19957 44.2692 8.19957C42.9999 8.19957 42.3269 9.11052 42.3269 10.5836V11.6689C42.3269 13.142 43.0192 14.0529 44.2692 14.0529C45.7499 14.0529 46.3076 12.9675 46.3076 11.5139V10.7386Z" fill="#004F9D"/>
<path d="M50.4231 11.3781V10.8548C50.4231 7.88934 52.0962 5.75732 55.5 5.75732C58.9039 5.75732 60.5769 7.88934 60.5769 10.8548V11.3781C60.5769 14.3435 58.9039 16.4755 55.5 16.4755C52.0962 16.4755 50.4231 14.3629 50.4231 11.3781ZM57.5 10.6416C57.5 9.28484 56.9423 8.19945 55.5 8.19945C54.0577 8.19945 53.5 9.28484 53.5 10.6416V11.6107C53.5 12.9674 54.0577 14.0528 55.5 14.0528C56.9423 14.0528 57.5 12.9674 57.5 11.6107V10.6416Z" fill="#004F9D"/>
<path d="M61.6345 11.3781V10.8548C61.6345 7.88934 63.3076 5.75732 66.7114 5.75732C70.1153 5.75732 71.7884 7.88934 71.7884 10.8548V11.3781C71.7884 14.3435 70.1153 16.4755 66.7114 16.4755C63.3076 16.4755 61.6345 14.3629 61.6345 11.3781ZM68.7114 10.6416C68.7114 9.28484 68.1538 8.19945 66.7114 8.19945C65.2691 8.19945 64.7114 9.28484 64.7114 10.6416V11.6107C64.7114 12.9674 65.2691 14.0528 66.7114 14.0528C68.1538 14.0528 68.7114 12.9674 68.7114 11.6107V10.6416Z" fill="#004F9D"/>
<path d="M76.0383 10.8935L79.096 5.9705H82.3653L79.173 11.068L82.4999 16.2817H79.2114L76.0383 11.2424V16.2817H72.9614V0.814899L76.0383 0.52417" fill="#004F9D"/>
</svg>
