<svg width="17" height="17" viewBox="0 0 17 17" fill="none" xmlns="http://www.w3.org/2000/svg">
<g id="heart" clip-path="url(#clip0_492_2800)">
<path id="Vector" d="M14.5601 3.57333C14.2196 3.23267 13.8153 2.96243 13.3703 2.77805C12.9253 2.59368 12.4484 2.49878 11.9667 2.49878C11.4851 2.49878 11.0081 2.59368 10.5632 2.77805C10.1182 2.96243 9.71392 3.23267 9.37341 3.57333L8.66675 4.28L7.96008 3.57333C7.27228 2.88553 6.33943 2.49914 5.36675 2.49914C4.39406 2.49914 3.46121 2.88553 2.77341 3.57333C2.08562 4.26112 1.69922 5.19397 1.69922 6.16666C1.69922 7.13935 2.08562 8.0722 2.77341 8.76L3.48008 9.46666L8.66675 14.6533L13.8534 9.46666L14.5601 8.76C14.9007 8.41949 15.171 8.01521 15.3554 7.57023C15.5397 7.12526 15.6346 6.64832 15.6346 6.16666C15.6346 5.685 15.5397 5.20807 15.3554 4.76309C15.171 4.31812 14.9007 3.91383 14.5601 3.57333Z" stroke="#878787" stroke-width="1.33333" stroke-linecap="round" stroke-linejoin="round"/>
</g>
<defs>
<clipPath id="clip0_492_2800">
<rect width="16" height="16" fill="white" transform="translate(0.666748 0.5)"/>
</clipPath>
</defs>
</svg>
