<svg width="61" height="23" viewBox="0 0 61 23" fill="none" xmlns="http://www.w3.org/2000/svg">
<path d="M8.27854 10.2467V8.17116H15.25C15.3211 8.53734 15.3633 8.97155 15.3633 9.4434C15.3633 10.9993 14.9363 12.9258 13.5594 14.2979C12.2203 15.6873 10.5108 16.4284 8.24223 16.4284C4.04049 16.4284 0.508301 13.0198 0.508301 8.83261C0.508301 4.64537 4.04049 1.23682 8.24223 1.23682C10.566 1.23682 12.2203 2.14432 13.4664 3.32971L11.9981 4.793C11.1063 3.95932 9.89794 3.3109 8.24223 3.3109C5.1748 3.3109 2.77692 5.77432 2.77692 8.83261C2.77692 11.8909 5.1748 14.3543 8.24223 14.3543C10.232 14.3543 11.3648 13.5583 12.091 12.8346C12.6822 12.2455 13.0714 11.4017 13.2224 10.2467H8.27854Z" fill="#4285F4"/>
<path d="M25.986 11.5362C25.986 14.3527 23.774 16.4268 21.0595 16.4268C18.345 16.4268 16.1331 14.3513 16.1331 11.5362C16.1331 8.70222 18.345 6.64551 21.0595 6.64551C23.774 6.64551 25.986 8.70222 25.986 11.5362ZM23.8292 11.5362C23.8292 9.77617 22.5468 8.57196 21.0595 8.57196C19.5723 8.57196 18.2898 9.77617 18.2898 11.5362C18.2898 13.2773 19.5723 14.5004 21.0595 14.5004C22.5468 14.5018 23.8292 13.2788 23.8292 11.5362Z" fill="#EA4335"/>
<path d="M36.5883 11.5362C36.5883 14.3527 34.3763 16.4268 31.6618 16.4268C28.9473 16.4268 26.7354 14.3513 26.7354 11.5362C26.7354 8.70222 28.9473 6.64551 31.6618 6.64551C34.3763 6.64551 36.5883 8.70222 36.5883 11.5362ZM34.4315 11.5362C34.4315 9.77617 33.1491 8.57196 31.6618 8.57196C30.1746 8.57196 28.8921 9.77617 28.8921 11.5362C28.8921 13.2773 30.1746 14.5004 31.6618 14.5004C33.1491 14.5018 34.4315 13.2788 34.4315 11.5362Z" fill="#FBBC05"/>
<path d="M46.7667 6.93931V15.7234C46.7667 19.336 44.6288 20.8181 42.1002 20.8181C39.7212 20.8181 38.2891 19.2246 37.7503 17.9277L39.6282 17.149C39.9623 17.9451 40.7814 18.8902 42.1002 18.8902C43.7181 18.8902 44.7217 17.8901 44.7217 16.0187V15.3152H44.6477C44.164 15.9086 43.2345 16.4268 42.0639 16.4268C39.6094 16.4268 37.3596 14.2963 37.3596 11.5535C37.3596 8.79339 39.6094 6.64404 42.0639 6.64404C43.2345 6.64404 44.164 7.1622 44.6477 7.73681H44.7217V6.93786H46.7667V6.93931ZM44.8699 11.555C44.8699 9.83115 43.7167 8.57194 42.2483 8.57194C40.7611 8.57194 39.515 9.83115 39.515 11.555C39.515 13.26 40.7611 14.5004 42.2483 14.5004C43.7181 14.5018 44.8699 13.26 44.8699 11.555Z" fill="#4285F4"/>
<path d="M50.3975 1.80273V16.1317H48.2407V1.80273H50.3975Z" fill="#34A853"/>
<path d="M58.5803 13.1486L60.2534 14.2601C59.7146 15.0562 58.4133 16.4283 56.1635 16.4283C53.375 16.4283 51.2922 14.2789 51.2922 11.5376C51.2922 8.62842 53.3924 6.64697 55.921 6.64697C58.4684 6.64697 59.7131 8.66605 60.1227 9.75881L60.3464 10.3146L53.7831 13.0197C54.2856 14.0011 55.0655 14.5018 56.1621 14.5018C57.2601 14.5018 58.0226 13.9634 58.5803 13.1486ZM53.4301 11.3886L57.8178 9.57355C57.5767 8.96276 56.8505 8.53579 55.9965 8.53579C54.8985 8.53579 53.375 9.49829 53.4301 11.3886Z" fill="#EA4335"/>
</svg>
