<svg width="20" height="20" viewBox="0 0 20 20" fill="none" xmlns="http://www.w3.org/2000/svg">
<g id="gis:poi-map">
<path id="Vector" d="M14.0779 14L13.3071 15.4494L17.0811 14.8324C16.3195 14.4504 15.2885 14.1774 14.0779 14ZM4.35589 14.316C2.60789 14.777 1.50049 15.5324 1.50049 16.6544C1.50121 16.896 1.55401 17.1345 1.65529 17.3538L7.71229 16.3638L4.35589 14.316ZM18.3585 16L9.92849 17.374L12.1517 19.9032C15.8025 19.5762 18.5005 18.41 18.5005 16.6544C18.5005 16.4204 18.4501 16.2028 18.3585 16ZM8.50409 17.611L2.80809 18.542C4.31369 19.4748 6.97109 20 10.0005 20C10.1841 20 10.3635 19.9948 10.5443 19.991L8.50409 17.611Z" fill="#BD70BE"/>
<path id="Vector_2" d="M10.001 0C6.74096 0 4.06616 2.6666 4.06616 5.9192C4.06616 7.1696 4.46356 8.3344 5.13456 9.2922L8.98136 15.9422L8.99776 15.9636C9.14956 16.1618 9.29776 16.3182 9.47176 16.4332C9.64576 16.5484 9.86176 16.6172 10.0738 16.596C10.4974 16.5536 10.7568 16.2544 11.003 15.9208L11.0162 15.9036L15.263 8.6754L15.2654 8.6708C15.365 8.4908 15.4386 8.3076 15.501 8.1292C15.7874 7.4276 15.9348 6.67703 15.935 5.9192C15.935 2.6666 13.261 0 10.001 0ZM10.001 3.409C11.4152 3.409 12.519 4.5108 12.519 5.919C12.519 7.3276 11.4152 8.429 10.001 8.429C8.58656 8.429 7.48216 7.3274 7.48216 5.919C7.48216 4.511 8.58676 3.409 10.001 3.409Z" fill="#BD70BE"/>
</g>
</svg>
