<svg width="16" height="17" viewBox="0 0 16 17" fill="none" xmlns="http://www.w3.org/2000/svg">
<g id="Icon Frame">
<path id="Vector" d="M10.8482 4.50527C11.0795 4.9009 11.5087 5.16667 12.0001 5.16667C12.7365 5.16667 13.3334 4.56971 13.3334 3.83333C13.3334 3.09695 12.7365 2.5 12.0001 2.5C11.2637 2.5 10.6667 3.09695 10.6667 3.83333C10.6667 4.07837 10.7328 4.30797 10.8482 4.50527ZM10.8482 4.50527L5.15197 7.82806M5.15197 7.82806C4.92069 7.43244 4.49142 7.16667 4.00008 7.16667C3.2637 7.16667 2.66675 7.76362 2.66675 8.5C2.66675 9.23638 3.2637 9.83333 4.00008 9.83333C4.49142 9.83333 4.92069 9.56756 5.15197 9.17194M5.15197 7.82806C5.26732 8.02537 5.33341 8.25496 5.33341 8.5C5.33341 8.74504 5.26732 8.97464 5.15197 9.17194M5.15197 9.17194L10.8482 12.4947M10.8482 12.4947C11.0795 12.0991 11.5087 11.8333 12.0001 11.8333C12.7365 11.8333 13.3334 12.4303 13.3334 13.1667C13.3334 13.903 12.7365 14.5 12.0001 14.5C11.2637 14.5 10.6667 13.903 10.6667 13.1667C10.6667 12.9216 10.7328 12.692 10.8482 12.4947Z" stroke="#878787" stroke-width="1.33333" stroke-linecap="round" stroke-linejoin="round"/>
</g>
</svg>
